<?xml version="1.0" standalone="no"?>
<!DOCTYPE svg PUBLIC "-//W3C//DTD SVG 20010904//EN"
 "http://www.w3.org/TR/2001/REC-SVG-20010904/DTD/svg10.dtd">
<svg version="1.0" xmlns="http://www.w3.org/2000/svg"
 width="535.000000pt" height="535.000000pt" viewBox="0 0 535.000000 535.000000"
 preserveAspectRatio="xMidYMid meet">
<metadata>
Created by potrace 1.14, written by Peter Selinger 2001-2017
</metadata>
<g transform="translate(0.000000,535.000000) scale(0.100000,-0.100000)"
fill="#000000" stroke="none">
<path d="M1307 5178 c-20 -19 -1148 -1259 -1269 -1396 l-38 -42 0 -1054 0
-1055 38 -44 c171 -197 1295 -1436 1307 -1441 9 -3 612 -6 1340 -6 l1324 0 24
22 c44 41 1284 1425 1296 1446 8 15 11 321 11 1076 l0 1056 -37 42 c-78 88
-1239 1364 -1264 1391 l-27 27 -1341 0 -1340 0 -24 -22z m3230 -785 c329 -361
608 -670 621 -687 l22 -30 0 -992 0 -992 -42 -51 c-125 -150 -1187 -1321
-1206 -1330 -22 -11 -1458 -13 -2258 -3 l-260 3 -625 692 -624 692 -3 992 -2
991 40 47 c102 118 1119 1237 1165 1283 l44 42 1264 0 1265 0 599 -657z"/>
<path d="M1446 4888 c-19 -18 -200 -215 -402 -437 -203 -222 -453 -496 -556
-609 l-188 -205 0 -947 0 -947 541 -599 c298 -329 564 -623 591 -651 l50 -53
1196 0 1197 0 525 581 c289 319 551 610 583 647 l57 66 0 950 0 951 -565 620
c-311 341 -577 630 -591 643 l-25 22 -1190 0 -1189 0 -34 -32z m1428 -855
c424 -260 605 -383 703 -482 84 -85 83 -81 83 -384 l0 -265 -32 -48 c-63 -94
-243 -232 -725 -558 l-233 -157 -292 197 c-461 309 -641 452 -688 544 -18 36
-20 59 -20 298 l0 258 28 45 c50 77 176 180 387 314 227 145 571 354 584 354
7 1 100 -52 205 -116z m-1539 -1154 l150 -179 240 -173 c132 -95 383 -276 558
-402 l317 -228 0 -203 c0 -112 -1 -204 -3 -204 -1 0 -133 97 -292 215 l-290
215 -127 -131 c-70 -72 -132 -129 -137 -127 -5 1 -105 84 -221 183 l-212 180
54 50 c29 27 81 75 114 106 l62 56 -189 141 -189 142 0 270 c0 149 3 270 8
269 4 0 75 -81 157 -180z m2835 -89 l0 -270 -185 -137 c-101 -76 -184 -141
-185 -145 0 -4 26 -31 57 -60 32 -29 82 -76 111 -103 l53 -50 -210 -180 c-116
-99 -215 -181 -221 -183 -5 -2 -67 55 -137 127 l-128 130 -290 -215 -290 -215
-3 203 c-2 189 -1 204 16 218 11 8 262 189 558 403 l539 387 150 179 c83 99
153 180 158 180 4 1 7 -120 7 -269z"/>
<path d="M2585 3834 c-46 -24 -63 -43 -81 -90 -41 -108 40 -214 164 -214 57 0
104 27 140 80 20 29 23 44 20 93 -4 46 -10 63 -34 88 -16 17 -41 37 -56 45
-36 19 -116 18 -153 -2z"/>
<path d="M2115 3121 c-141 -65 -167 -247 -50 -349 48 -43 73 -52 145 -52 49 0
65 5 106 33 110 74 128 230 38 321 -64 64 -162 83 -239 47z"/>
<path d="M3043 3115 c-74 -37 -106 -90 -111 -180 -4 -66 -2 -73 30 -119 75
-112 231 -131 322 -40 172 172 -24 447 -241 339z"/>
</g>
</svg>
