<?xml version="1.0" standalone="no"?>
<!DOCTYPE svg PUBLIC "-//W3C//DTD SVG 20010904//EN"
 "http://www.w3.org/TR/2001/REC-SVG-20010904/DTD/svg10.dtd">
<svg version="1.0" xmlns="http://www.w3.org/2000/svg"
 width="539.000000pt" height="539.000000pt" viewBox="0 0 539.000000 539.000000"
 preserveAspectRatio="xMidYMid meet">
<metadata>
Created by potrace 1.14, written by Peter Selinger 2001-2017
</metadata>
<g transform="translate(0.000000,539.000000) scale(0.100000,-0.100000)"
fill="#000000" stroke="none">
<path d="M1426 5289 c-80 -19 -166 -70 -249 -147 -419 -391 -1071 -1021 -1097
-1062 -17 -27 -41 -73 -53 -102 l-22 -53 0 -1190 0 -1190 26 -62 c15 -34 41
-81 57 -106 41 -59 1130 -1094 1194 -1134 116 -73 9 -68 1418 -68 l1265 0 61
26 c34 15 78 38 99 52 21 14 288 263 593 554 573 544 610 584 649 696 17 49
18 119 18 1232 l0 1180 -21 56 c-12 31 -37 80 -55 108 -31 48 -1103 1079
-1168 1124 -48 33 -126 70 -176 83 -41 11 -282 14 -1275 13 -699 -1 -1242 -5
-1264 -10z m2381 -245 c108 -22 179 -62 280 -156 141 -132 738 -704 848 -813
151 -150 182 -219 192 -442 6 -131 6 -132 -16 -126 -20 5 -21 11 -21 133 0
136 -14 199 -64 285 -25 42 -167 185 -461 462 -93 88 -260 247 -370 352 -176
169 -210 196 -284 234 l-84 42 -744 3 c-474 2 -743 6 -743 12 0 6 -7 10 -15
10 -8 0 -15 5 -15 10 0 7 243 10 710 10 609 0 722 -2 787 -16z m-560 -1338
c547 -273 569 -287 592 -373 6 -22 13 -297 17 -669 l7 -631 -22 -47 c-13 -26
-39 -60 -60 -77 -37 -32 -182 -99 -211 -99 -33 0 -70 39 -70 74 0 42 26 65
112 101 37 15 75 36 83 45 14 16 16 63 16 392 -1 562 -10 858 -27 886 -18 27
-963 503 -1003 504 -15 1 -83 -29 -152 -66 -69 -36 -137 -66 -151 -66 -62 0
-95 77 -52 120 10 10 80 51 154 89 212 110 152 125 767 -183z m-1132 -61 c29
-28 32 -65 8 -93 -10 -12 -101 -64 -203 -117 -102 -53 -193 -106 -202 -117
-17 -19 -18 -62 -18 -599 l0 -578 23 -24 c25 -28 946 -517 972 -517 10 0 138
52 284 115 153 66 280 115 298 115 22 0 38 -8 52 -26 54 -69 26 -92 -294 -230
-251 -109 -275 -118 -335 -118 -61 -1 -72 3 -180 61 -63 33 -163 86 -223 117
-59 31 -115 60 -125 66 -9 5 -129 68 -267 140 -269 141 -320 179 -343 257 -16
53 -17 1180 -2 1235 24 85 61 115 280 230 113 59 215 108 228 108 13 0 34 -11
47 -25z m685 -217 c55 -29 67 -48 55 -85 -27 -77 -201 -98 -272 -31 -90 85 89
181 217 116z m-479 -334 l385 -185 387 185 c213 102 392 186 397 186 24 0 60
-25 70 -51 26 -62 18 -67 -395 -266 l-380 -183 -3 -477 c-2 -473 -2 -477 -24
-500 -26 -28 -67 -30 -99 -4 l-24 19 -5 483 -5 483 -369 178 c-203 98 -378
186 -388 195 -10 9 -18 29 -18 45 0 33 39 78 67 78 10 0 192 -83 404 -186z
m-362 -160 c33 -23 51 -74 51 -141 0 -68 -23 -121 -61 -142 -24 -13 -29 -13
-53 2 -39 26 -59 74 -60 142 0 62 12 94 47 133 24 26 44 28 76 6z m1519 -77
c86 -92 25 -313 -73 -269 -32 15 -64 83 -65 137 0 87 39 155 90 155 15 0 36
-10 48 -23z m-1255 -313 c68 -68 38 -274 -39 -274 -63 0 -94 51 -94 152 0 62
22 120 54 140 22 15 54 8 79 -18z m940 -250 c39 -38 53 -119 33 -187 -18 -61
-41 -87 -79 -87 -53 0 -87 57 -87 145 0 62 12 100 42 133 28 29 59 28 91 -4z
m-691 -121 c30 -35 41 -67 41 -127 1 -63 -10 -94 -46 -133 -36 -40 -82 -23
-116 44 -26 51 -9 169 31 221 15 18 72 15 90 -5z"/>
</g>
</svg>
